<svg xmlns="http://www.w3.org/2000/svg" viewBox="0 0 218.02 244.91"><defs><style>.cls-1{fill:#e9e978;stroke-width:11px;}.cls-1,.cls-2{stroke:#000;}.cls-1,.cls-2,.cls-4{stroke-miterlimit:10;}.cls-2,.cls-3{fill:none;}.cls-2{stroke-width:10px;}.cls-4{stroke:#e9e978;}</style></defs><g id="Capa_2" data-name="Capa 2"><g id="Capa_3" data-name="Capa 3"><g id="Capa_1-2" data-name="Capa 1"><path class="cls-1" d="M5.5,72.27V172.64A16.6,16.6,0,0,0,13.79,187l86.93,50.18a16.56,16.56,0,0,0,16.59,0L204.23,187a16.6,16.6,0,0,0,8.29-14.37V72.27a16.58,16.58,0,0,0-8.29-14.36L117.31,7.72a16.61,16.61,0,0,0-16.59,0L13.79,57.91A16.58,16.58,0,0,0,5.5,72.27Z"/><path class="cls-2" d="M20.81,77.74v89.44a10.74,10.74,0,0,0,5.37,9.3l77.46,44.72a10.73,10.73,0,0,0,10.74,0l77.46-44.72a10.74,10.74,0,0,0,5.37-9.3V77.74a10.76,10.76,0,0,0-5.37-9.31L114.38,23.71a10.73,10.73,0,0,0-10.74,0L26.18,68.43A10.76,10.76,0,0,0,20.81,77.74Z"/></g><g id="Capa_2-2" data-name="Capa 2"><path d="M169.11,98c-.11.78-.17,1.57-.32,2.35a8.11,8.11,0,0,1-4.28,5.64,22.4,22.4,0,0,1-7.72,2.48,37.46,37.46,0,0,1-10.36.16c-1.38-.17-2.74-.46-4.11-.7l-.36-.06c.39.85.78,1.65,1.12,2.47a24.4,24.4,0,0,1,2,10.15,16.52,16.52,0,0,1-2,7.71,10.11,10.11,0,0,1-6,4.66,20.27,20.27,0,0,1-8.07.87c-1.86-.16-3.7-.51-5.55-.78l-.42-.06c3.38,4.37,4.35,9.27,3.69,14.64l-1.47-.19a74.62,74.62,0,0,1-14-3.43,55.59,55.59,0,0,1-17-9.46,45.36,45.36,0,0,1-10.22-11.78l-.26-.48a13.6,13.6,0,0,1,7.88-5.35,17.35,17.35,0,0,1,9.46.82c1.08.36,2.14.81,3.26,1.23-.11-.31-.22-.6-.32-.9a19.62,19.62,0,0,1,2.65-18.29,14.93,14.93,0,0,1,10-6.37,18.26,18.26,0,0,1,8.5.53c1,.28,1.93.64,2.82,1-.72-8.29,1.83-15.06,9.14-19.7l-1.74-3.55-2.18-4.43a2.59,2.59,0,0,1,1.57-3.76c5-1.65,9.9-3.27,14.83-5a5.83,5.83,0,0,1,2.57-.26,2.08,2.08,0,0,1,1.16.77A2.6,2.6,0,0,1,152.12,63c-2.78.89-5.55,1.8-8.33,2.7l-4.55,1.5-.24.1,2.73,5.46.41-.19c2.64-1.33,5.29-2.67,7.94-4a1.51,1.51,0,0,1,.64-.18h10.44a2.59,2.59,0,1,1,.09,5.17c-2,0-3.94,0-5.92,0-1,0-2.08.06-3.11,0a5.08,5.08,0,0,0-2.4.8c.62.23,1.15.4,1.67.62a29.71,29.71,0,0,1,8,5.21,30.84,30.84,0,0,1,6.88,8.44,19.64,19.64,0,0,1,2.65,8.7c0,.16,0,.31.06.46Zm-7.38-6.4a12.12,12.12,0,0,0-2-6.62c-2.27-3.47-5.24-5.88-9.58-6.12a8.75,8.75,0,0,0-6.32,1.93c-2.57,2.13-3.19,4.95-2.62,8.11a11.17,11.17,0,0,0,3.64,6.38A13.66,13.66,0,0,0,155.92,99a5.91,5.91,0,0,0,5.19-4A9.45,9.45,0,0,0,161.73,91.6Z"/><path d="M110.55,88.6a16.37,16.37,0,0,0-8.68,5.65l-1.29-1.53A141.77,141.77,0,0,0,87.39,79a59.29,59.29,0,0,0-10.88-8.08,18.69,18.69,0,0,0-6.35-2.33,9.09,9.09,0,0,0-1.65-.1,2.59,2.59,0,0,0-2.63,2.46,14.56,14.56,0,0,0,0,4.75A34.29,34.29,0,0,0,69.47,87a29.44,29.44,0,0,0,15.26,13.94,39,39,0,0,0,10.42,2.66l.44.07c-.3,1.53-.68,3-.86,4.56s-.16,3-.23,4.63c-.63-.1-1.32-.2-2-.33a53.74,53.74,0,0,1-14-4.51A41.12,41.12,0,0,1,63.93,96.41a39.63,39.63,0,0,1-8.06-17.92,30.78,30.78,0,0,1,.22-12.39,10.52,10.52,0,0,1,2.26-4.66,9.68,9.68,0,0,1,5.58-3A18.17,18.17,0,0,1,74.5,59.65a75.61,75.61,0,0,1,15.88,8.88A90.66,90.66,0,0,1,103,79.3a64.28,64.28,0,0,1,7.31,8.91Z"/><path d="M79.57,132.06c.56.76,1.07,1.48,1.61,2.17a50.21,50.21,0,0,0,11.11,10.42,66.33,66.33,0,0,0,16.63,8.24,68.16,68.16,0,0,0,12.84,3.05c.95.13,1.92.2,2.88.29l.49,0c-.25.91-.46,1.77-.73,2.61a34.74,34.74,0,0,1-4.68,9.45.63.63,0,0,1-.69.33,74,74,0,0,1-14.49-3.11,60.94,60.94,0,0,1-18.36-9.61,54.39,54.39,0,0,1-9.38-9.19.94.94,0,0,1-.23-.63c.46-2.78.89-5.57,1.45-8.33.34-1.74.88-3.43,1.33-5.14C79.4,132.48,79.48,132.31,79.57,132.06Z"/><path d="M76.56,160.57c9.86,9.82,21.85,14.71,35.56,15.93-.34.32-.68.64-1,.94a36.77,36.77,0,0,1-10.78,6.63c-1,.39-2.1.68-3.16,1-.35.1-.48.22-.47.59,0,2.08,0,4.15,0,6.23v.58c-.54-.3-1-.54-1.45-.8a22.83,22.83,0,0,1-7.41-6.79,4.69,4.69,0,0,1-.55-.91,8.08,8.08,0,0,0-2-2.71,25.55,25.55,0,0,1-5.54-8.45,44.63,44.63,0,0,1-3.15-12A1.88,1.88,0,0,1,76.56,160.57Z"/><path d="M123,89.47c-1.75-.62-3.45-1.24-5.16-1.82a1.12,1.12,0,0,1-.74-.71,55.08,55.08,0,0,0-4.76-9.06,26.16,26.16,0,0,0-6.14-6.79A12.58,12.58,0,0,0,99,68.43a.68.68,0,0,1-.35-.1c-3-2.26-6.14-4.14-9.28-6.1l-.93-.58a11.4,11.4,0,0,1,4.67-3,12.93,12.93,0,0,1,7.47,0,28.3,28.3,0,0,1,9.91,5.12,44.65,44.65,0,0,1,12.7,15.46c.66,1.28,1.2,2.63,1.77,4a.77.77,0,0,1,0,.52A36.38,36.38,0,0,0,123,89.45Z"/><path class="cls-3" d="M161.73,91.6a9.45,9.45,0,0,1-.62,3.45,5.91,5.91,0,0,1-5.19,4,13.66,13.66,0,0,1-11.08-3.73,11.17,11.17,0,0,1-3.64-6.38c-.57-3.16.05-6,2.62-8.11a8.75,8.75,0,0,1,6.32-1.93c4.34.24,7.31,2.65,9.58,6.12A12.12,12.12,0,0,1,161.73,91.6Z"/><path class="cls-4" d="M159.51,155.4H117.12a1.93,1.93,0,0,1,0-.23c0-3,0-5.91,0-8.87a3.74,3.74,0,0,1,3-3.68,4.73,4.73,0,0,1,1-.08h8.11v-3.59a2.26,2.26,0,0,1,2.44-2.46H145a2.26,2.26,0,0,1,2.37,1.87,2.91,2.91,0,0,1,0,.51v3.67h8.2a3.79,3.79,0,0,1,3.73,2.6,3.87,3.87,0,0,1,.19,1.17q0,4.47,0,8.92C159.52,155.27,159.51,155.32,159.51,155.4Zm-15.16-15.87H132.26v3h12.09Z"/><path class="cls-4" d="M117.11,157.7H133v3.66a1.53,1.53,0,0,0,1.64,1.63H142a1.55,1.55,0,0,0,1.66-1.65c0-1.1,0-2.21,0-3.31v-.33h15.91V169a3.78,3.78,0,0,1-3.1,3.79,3.94,3.94,0,0,1-.77.06H120.94a3.73,3.73,0,0,1-3.83-3.81c0-3.69,0-7.37,0-11.06Z"/><path class="cls-4" d="M141.33,157.71v3h-6v-3Z"/><path class="cls-4" d="M119.89,119.34s-4.28,13.1,12.81,19.94-9.26-8.11-8.71-15.73S119.89,119.34,119.89,119.34Z"/></g></g></g></svg>